<svg xmlns="http://www.w3.org/2000/svg" width="1920" height="1080" viewBox="0 0 1920 1080" version="1.1"><path d="M 815.655 285.829 C 814.124 287.520, 814 306.608, 814 540.174 C 814 783.537, 814.066 792.750, 815.829 794.345 C 817.512 795.869, 828.964 796, 960.174 796 L 1102.690 796 1104.595 793.895 C 1106.458 791.837, 1106.500 786.201, 1106.500 540 C 1106.500 293.799, 1106.458 288.163, 1104.595 286.105 L 1102.690 284 960 284 C 823.034 284, 817.244 284.073, 815.655 285.829 M 826 540 L 826 784 960 784 L 1094 784 1094 540 L 1094 296 960 296 L 826 296 826 540 M 838 540 L 838 732 960 732 L 1082 732 1082 540 L 1082 348 960 348 L 838 348 838 540 M 842.464 353.246 C 842.201 353.936, 842.102 438.425, 842.243 541 L 842.500 727.500 960 727.500 L 1077.500 727.500 1077.500 540 L 1077.500 352.500 960.220 352.246 C 866.923 352.044, 842.843 352.248, 842.464 353.246 M 917.750 467.057 L 876 488.005 876 540 L 876 591.995 918 613 L 960 634.005 1002 613 L 1044 591.995 1044 540 L 1044 488.005 1002.005 467.002 C 978.907 455.451, 959.895 446.025, 959.755 446.054 C 959.615 446.084, 940.712 455.536, 917.750 467.057 M 923.506 472.679 L 888.511 490.250 924.251 508.126 L 959.991 526.001 995.495 508.257 C 1015.023 498.498, 1030.997 490.285, 1030.994 490.007 C 1030.982 489.064, 962.053 455, 960.269 455.054 C 959.296 455.084, 942.753 463.015, 923.506 472.679 M 884.002 541.747 L 884.004 587.500 920.002 605.525 L 956 623.550 956 577.777 L 956 532.005 920 514 L 884 495.995 884.002 541.747 M 999.750 514.057 L 964 532.006 964 578.025 L 964 624.045 1000 605.972 L 1036 587.900 1036 541.950 C 1036 516.678, 1035.888 496.024, 1035.750 496.054 C 1035.612 496.084, 1019.413 504.185, 999.750 514.057 M 959.500 938 C 1037.049 1015.550, 1100.722 1079, 1100.997 1079 C 1101.272 1079, 1038.049 1015.550, 960.500 938 C 882.951 860.450, 819.278 797, 819.003 797 C 818.728 797, 881.951 860.450, 959.500 938" stroke="none" fill="#c3c3c3" fill-rule="evenodd"/><path d="M -0 540.001 L -0 1080.001 960.250 1079.751 L 1920.500 1079.500 1920.751 539.750 L 1921.002 0 960.501 0 L 0 0 -0 540.001 M 0.496 540.500 C 0.496 837.500, 0.610 958.851, 0.750 810.168 C 0.890 661.485, 0.890 418.485, 0.750 270.168 C 0.610 121.851, 0.496 243.500, 0.496 540.500 M 815.655 285.829 C 814.124 287.520, 814 306.608, 814 540.174 C 814 783.537, 814.066 792.750, 815.829 794.345 C 817.512 795.869, 828.964 796, 960.174 796 L 1102.690 796 1104.595 793.895 C 1106.458 791.837, 1106.500 786.201, 1106.500 540 C 1106.500 293.799, 1106.458 288.163, 1104.595 286.105 L 1102.690 284 960 284 C 823.034 284, 817.244 284.073, 815.655 285.829 M 826 540 L 826 784 960 784 L 1094 784 1094 540 L 1094 296 960 296 L 826 296 826 540 M 838 540 L 838 732 960 732 L 1082 732 1082 540 L 1082 348 960 348 L 838 348 838 540 M 842.464 353.246 C 842.201 353.936, 842.102 438.425, 842.243 541 L 842.500 727.500 960 727.500 L 1077.500 727.500 1077.500 540 L 1077.500 352.500 960.220 352.246 C 866.923 352.044, 842.843 352.248, 842.464 353.246 M 917.750 467.057 L 876 488.005 876 540 L 876 591.995 918 613 L 960 634.005 1002 613 L 1044 591.995 1044 540 L 1044 488.005 1002.005 467.002 C 978.907 455.451, 959.895 446.025, 959.755 446.054 C 959.615 446.084, 940.712 455.536, 917.750 467.057 M 923.506 472.679 L 888.511 490.250 924.251 508.126 L 959.991 526.001 995.495 508.257 C 1015.023 498.498, 1030.997 490.285, 1030.994 490.007 C 1030.982 489.064, 962.053 455, 960.269 455.054 C 959.296 455.084, 942.753 463.015, 923.506 472.679 M 884.002 541.747 L 884.004 587.500 920.002 605.525 L 956 623.550 956 577.777 L 956 532.005 920 514 L 884 495.995 884.002 541.747 M 999.750 514.057 L 964 532.006 964 578.025 L 964 624.045 1000 605.972 L 1036 587.900 1036 541.950 C 1036 516.678, 1035.888 496.024, 1035.750 496.054 C 1035.612 496.084, 1019.413 504.185, 999.750 514.057 M 959.500 938 C 1037.049 1015.550, 1100.722 1079, 1100.997 1079 C 1101.272 1079, 1038.049 1015.550, 960.500 938 C 882.951 860.450, 819.278 797, 819.003 797 C 818.728 797, 881.951 860.450, 959.500 938" stroke="none" fill="#eeeeee" fill-rule="evenodd"/></svg>