<?xml version="1.0" encoding="UTF-8"?>
<svg version="1.1" xmlns="http://www.w3.org/2000/svg" width="500" height="500">
<path d="M0 0 C165 0 330 0 500 0 C500 165 500 330 500 500 C335 500 170 500 0 500 C0 335 0 170 0 0 Z " fill="#FEFEFE" transform="translate(0,0)"/>
<path d="M0 0 C8.88505876 -0.04665045 17.77007438 -0.08203346 26.65522957 -0.10362434 C30.78240456 -0.11399473 34.90949484 -0.1280282 39.03662109 -0.15087891 C43.03074839 -0.17285104 47.02479498 -0.18461911 51.01897812 -0.18975449 C52.53135318 -0.19340706 54.04372458 -0.20053731 55.55606461 -0.21146011 C71.01726938 -0.31853288 87.3523536 -0.06062782 100 10 C106.10315235 16.13314327 109.3525064 21.71045432 109.51928711 30.48779297 C109.50973999 31.85508545 109.50973999 31.85508545 109.5 33.25 C109.49427979 34.18859863 109.48855957 35.12719727 109.48266602 36.09423828 C109.30275774 43.05190319 108.42982408 48.42336867 104 54 C103.49210937 54.66 102.98421875 55.32 102.4609375 56 C97.85352768 61.24065572 91.78540257 64.48058798 84.8046875 65.23828125 C82.875 65.25 82.875 65.25 80 65 C80 65.66 80 66.32 80 67 C80.76183594 66.96519531 81.52367187 66.93039062 82.30859375 66.89453125 C93.27879002 66.60692311 101.48441228 68.86099225 110 76 C117.06922536 83.70364302 118.57786223 90.70349937 118.30078125 100.921875 C117.77415818 110.29273156 114.0945441 117.04847974 107.640625 123.76953125 C103.22608381 127.49838187 98.30990887 129.80484214 93 132 C92.21409988 132.3308963 91.42819977 132.6617926 90.6184845 133.00271606 C80.53757355 136.84216234 69.69040105 136.26397383 59.08203125 136.1953125 C57.37139553 136.19157473 55.66075765 136.18873138 53.95011902 136.18673706 C49.48348916 136.17916066 45.01699276 136.15956483 40.55041504 136.1373291 C35.97828984 136.11674037 31.40614273 136.10770769 26.83398438 136.09765625 C17.8892648 136.07631232 8.94464357 136.04225024 0 136 C0 135.01 0 134.02 0 133 C0.69867188 132.89042969 1.39734375 132.78085937 2.1171875 132.66796875 C3.02726563 132.50941406 3.93734375 132.35085938 4.875 132.1875 C5.77992188 132.03667969 6.68484375 131.88585937 7.6171875 131.73046875 C10.34412478 131.16948699 10.34412478 131.16948699 12 128 C12.30385862 125.68254298 12.30385862 125.68254298 12.26069641 123.0657959 C12.26778122 122.04789474 12.27486603 121.02999359 12.28216553 119.98124695 C12.27968811 118.86530655 12.27721069 117.74936615 12.2746582 116.59960938 C12.27976913 115.42380814 12.28488007 114.2480069 12.29014587 113.03657532 C12.30167463 109.8113998 12.30411388 106.58638344 12.30158257 103.3611927 C12.30051352 100.66970483 12.30539445 97.97824073 12.310188 95.28675795 C12.32128524 88.93838698 12.32171912 82.59007519 12.31567383 76.24169922 C12.3096303 69.68930313 12.32195399 63.13712158 12.3432439 56.5847621 C12.36084598 50.96090814 12.36686355 45.33712255 12.36360615 39.71324205 C12.3617912 36.35350239 12.36445056 32.99391581 12.37832069 29.63420105 C12.39060525 25.88942751 12.38394132 22.14515564 12.37231445 18.40039062 C12.37995819 17.28445023 12.38760193 16.16850983 12.39547729 15.01875305 C12.38495583 13.49190132 12.38495583 13.49190132 12.3742218 11.9342041 C12.37438954 11.04857033 12.37455729 10.16293655 12.37473011 9.25046539 C11.92061067 6.52322235 11.17085662 5.66006208 9 4 C6.73606029 3.21643098 6.73606029 3.21643098 4.3125 2.8125 C3.10013672 2.57466797 3.10013672 2.57466797 1.86328125 2.33203125 C1.24839844 2.22246094 0.63351563 2.11289062 0 2 C0 1.34 0 0.68 0 0 Z " fill="#044CAE" transform="translate(190,263)"/>
<path d="M0 0 C6.27118007 3.20976198 11.93812431 3.5216181 18.92553711 2.66015625 C19.58553711 -0.30984375 20.24553711 -3.27984375 20.92553711 -6.33984375 C21.91553711 -6.33984375 22.90553711 -6.33984375 23.92553711 -6.33984375 C23.92553711 14.12015625 23.92553711 34.58015625 23.92553711 55.66015625 C22.93553711 55.66015625 21.94553711 55.66015625 20.92553711 55.66015625 C20.76698242 54.43941406 20.60842773 53.21867187 20.44506836 51.9609375 C18.45096307 37.52426223 15.31996121 25.19895977 5.92553711 13.66015625 C5.41506836 13.02464844 4.90459961 12.38914062 4.37866211 11.734375 C-3.95481605 2.43140804 -15.55389613 -1.84563257 -27.71118164 -2.55078125 C-36.90214805 -2.7885575 -44.45781499 -2.39233802 -51.88696289 3.34765625 C-56.42221745 7.68251584 -58.7936433 11.64934373 -59.38305664 17.96875 C-59.66663941 33.46571412 -55.43656923 44.81985857 -44.67211914 56.1953125 C-36.01842462 64.40656249 -25.96788043 70.83798471 -16.03344727 77.3671875 C29.07435197 107.13923445 29.07435197 107.13923445 34.48803711 130.62109375 C36.54505459 144.91001874 34.60536446 158.1504963 26.60522461 170.44921875 C18.05573806 181.70272895 4.13578468 187.1858089 -9.49243164 189.26953125 C-26.71859751 191.14806624 -43.04765513 189.02341257 -58.88696289 181.91015625 C-66.28178385 178.59075304 -72.89694588 177.11638423 -81.07446289 178.66015625 C-84.04040706 180.39813021 -84.88994408 180.99896386 -85.82446289 184.34765625 C-85.90696289 185.11078125 -85.98946289 185.87390625 -86.07446289 186.66015625 C-87.06446289 186.66015625 -88.05446289 186.66015625 -89.07446289 186.66015625 C-89.07446289 160.26015625 -89.07446289 133.86015625 -89.07446289 106.66015625 C-88.08446289 106.66015625 -87.09446289 106.66015625 -86.07446289 106.66015625 C-86.01500488 107.38380371 -85.95554688 108.10745117 -85.89428711 108.85302734 C-83.91185351 131.8864962 -80.86071423 154.13120888 -63.07446289 170.66015625 C-49.71986063 180.83415058 -35.76218621 182.97447811 -19.22680664 181.38671875 C-10.59923969 179.93739689 -2.95328642 176.51628268 2.67163086 169.69921875 C7.74658924 161.44648268 8.25780278 153.11924252 6.92553711 143.66015625 C4.23665449 134.73795484 -1.54059759 128.09777803 -8.07446289 121.66015625 C-8.78989258 120.94601563 -9.50532227 120.231875 -10.24243164 119.49609375 C-20.60332439 109.68801972 -32.81409722 101.85866647 -44.57446289 93.84765625 C-61.59960931 82.23546353 -82.76186586 67.31697844 -88.44946289 46.41015625 C-90.77529219 32.72448699 -89.00084892 21.41748794 -81.07446289 9.97265625 C-72.41994891 -0.44692308 -59.39405687 -6.83668343 -46.19946289 -8.96484375 C-28.82001365 -10.53402741 -15.43778328 -8.36236677 0 0 Z " fill="#034CAE" transform="translate(270.074462890625,54.33984375)"/>
<path d="M0 0 C4.46163806 -0.07524167 8.92292117 -0.12910583 13.38500977 -0.16479492 C14.89679411 -0.17970277 16.40853663 -0.20003634 17.92016602 -0.22631836 C31.29111234 -0.4526437 44.33063501 -0.12207613 55 9 C61.03242771 15.34178298 61.36375926 21.296285 61.375 29.6875 C61.39949219 30.63044922 61.42398438 31.57339844 61.44921875 32.54492188 C61.48999884 42.43409454 58.60396706 50.14340036 51.77734375 57.31640625 C42.41240704 66.18736827 29.71491298 67.17640296 17.375 67.1875 C16.28832031 67.20586914 16.28832031 67.20586914 15.1796875 67.22460938 C10.13528814 67.23831698 5.58081841 66.87690444 1.3547821 63.80351257 C-0.61138027 61.18611856 -0.36034419 59.21656257 -0.34057617 55.96801758 C-0.34034958 54.72695755 -0.34012299 53.48589752 -0.33988953 52.20722961 C-0.32456968 50.85299316 -0.3089217 49.49876039 -0.29296875 48.14453125 C-0.28737251 46.7587683 -0.28310254 45.37299941 -0.28010559 43.98722839 C-0.26865883 40.34237236 -0.23919358 36.69787577 -0.20599365 33.05316162 C-0.17528885 29.33301658 -0.16159941 25.61281339 -0.14648438 21.89257812 C-0.11432331 14.59488833 -0.06312951 7.29749456 0 0 Z " fill="#FDFDFE" transform="translate(224,330)"/>
<path d="M0 0 C1.03898437 -0.02900391 2.07796875 -0.05800781 3.1484375 -0.08789062 C13.42870215 -0.17120948 22.2704163 2.16251246 29.84375 9.37890625 C37.11354444 17.86604834 37.06565135 27.66117839 36.5 38.3125 C35.42103624 46.29089258 32.62903007 52.00901276 26.5 57.3125 C16.82479993 63.66501906 5.97852313 63.72855553 -5.25 63.5 C-6.53132812 63.48646484 -7.81265625 63.47292969 -9.1328125 63.45898438 C-12.25566695 63.42402705 -15.37759541 63.3749609 -18.5 63.3125 C-18.59273004 55.81944986 -18.66378 48.3264593 -18.70724869 40.83296585 C-18.72811308 37.3532813 -18.75640821 33.87398967 -18.80175781 30.39453125 C-18.85358227 26.39319107 -18.87295453 22.39226281 -18.890625 18.390625 C-18.91127014 17.14259094 -18.93191528 15.89455688 -18.95318604 14.60870361 C-18.95348816 13.44780212 -18.95379028 12.28690063 -18.95410156 11.09082031 C-18.96298401 10.06933899 -18.97186646 9.04785767 -18.98101807 7.99542236 C-18.3687861 4.58064247 -17.19215384 3.43387917 -14.5 1.3125 C-9.7590649 -0.2678117 -4.96613092 0.04487468 0 0 Z " fill="#FCFDFE" transform="translate(242.5,264.6875)"/>
<path d="M0 0 C13.63414634 0 13.63414634 0 19.875 5.5625 C22.57369947 9.04469287 22.59334263 12.37980985 22.35546875 16.66796875 C21.67206458 21.15140052 19.79838677 23.28145191 16.5 26.25 C10.76474501 30.26467849 8.12337969 29 0 29 C0 19.43 0 9.86 0 0 Z " fill="#FFFEFD" transform="translate(355,360)"/>
<path d="M0 0 C13 0 13 0 16.625 1.625 C20.32431044 5.32431044 21.81656099 8.28790259 22.375 13.5 C21.81605046 18.71686233 20.33792735 21.79260214 16.4375 25.3125 C10.23939444 29.60349616 10.48678337 28 0 28 C0 18.76 0 9.52 0 0 Z " fill="#FFFEFD" transform="translate(380,203)"/>
<path d="M0 0 C13.63414634 0 13.63414634 0 19.875 5.5625 C22.57369947 9.04469287 22.59334263 12.37980985 22.35546875 16.66796875 C21.67206458 21.15140052 19.79838677 23.28145191 16.5 26.25 C10.76474501 30.26467849 8.12337969 29 0 29 C0 19.43 0 9.86 0 0 Z M3 3 C3 10.59 3 18.18 3 26 C11.46374152 26.84225213 11.46374152 26.84225213 15.5 23.625 C19.17483665 19.76642152 19.34320334 17.4157109 19.28515625 12.2578125 C18.85933373 8.88623144 17.46522826 7.25979257 15 5 C11.00843894 2.00632921 8.6200607 3 3 3 Z " fill="#FFDF61" transform="translate(355,360)"/>
<path d="M0 0 C13 0 13 0 16.625 1.625 C20.32431044 5.32431044 21.81656099 8.28790259 22.375 13.5 C21.81605046 18.71686233 20.33792735 21.79260214 16.4375 25.3125 C10.23939444 29.60349616 10.48678337 28 0 28 C0 18.76 0 9.52 0 0 Z M3 3 C3 10.26 3 17.52 3 25 C10.19095817 25.10168076 10.19095817 25.10168076 16 22 C18.44340191 19.06791771 18.96659534 17.31177679 19.375 13.5 C18.97541536 9.77054335 18.27230196 7.94557662 16 5 C12.21417472 2.07549967 12.21417472 2.07549967 3 3 Z " fill="#FFE16A" transform="translate(380,203)"/>
<path d="M0 0 C1.32 0 2.64 0 4 0 C4.33 7.92 4.66 15.84 5 24 C7.34102859 25.17051429 8.89352953 25.1992246 11.5 25.25 C12.69109375 25.28867188 12.69109375 25.28867188 13.90625 25.328125 C14.5971875 25.21984375 15.288125 25.1115625 16 25 C18.15749784 21.76375324 18.28360488 20.65605934 18.4140625 16.89453125 C18.45273437 15.91162109 18.49140625 14.92871094 18.53125 13.91601562 C18.5621875 12.89185547 18.593125 11.86769531 18.625 10.8125 C18.66367187 9.77673828 18.70234375 8.74097656 18.7421875 7.67382812 C18.83648296 5.11606378 18.92208202 2.55830713 19 0 C19.99 0 20.98 0 22 0 C22.08741124 3.56234428 22.14052896 7.12441108 22.1875 10.6875 C22.21263672 11.69490234 22.23777344 12.70230469 22.26367188 13.74023438 C22.35691643 23.1579348 22.35691643 23.1579348 19 27 C14.7741215 29.81725233 10.96375312 29.79958384 6 29 C3.17575712 26.80977082 1.58491397 25.16982793 0 22 C-0.08426094 20.3325394 -0.10725143 18.66174813 -0.09765625 16.9921875 C-0.09443359 16.00605469 -0.09121094 15.01992187 -0.08789062 14.00390625 C-0.07951172 12.97136719 -0.07113281 11.93882812 -0.0625 10.875 C-0.05798828 9.83472656 -0.05347656 8.79445312 -0.04882812 7.72265625 C-0.03701952 5.14838038 -0.02055075 2.57421854 0 0 Z " fill="#FFE271" transform="translate(340,202)"/>
<path d="M0 0 C0.99 0 1.98 0 3 0 C3.01458252 0.65073486 3.02916504 1.30146973 3.04418945 1.97192383 C3.11864549 4.91938306 3.21531266 7.86570642 3.3125 10.8125 C3.33505859 11.83666016 3.35761719 12.86082031 3.38085938 13.91601562 C3.41630859 14.89892578 3.45175781 15.88183594 3.48828125 16.89453125 C3.51446533 17.80050049 3.54064941 18.70646973 3.56762695 19.63989258 C4.07447956 22.40654653 4.78430875 23.31874342 7 25 C8.94457312 25.4714296 8.94457312 25.4714296 11 25.375 C11.680625 25.38273437 12.36125 25.39046875 13.0625 25.3984375 C15.62276572 24.87193124 16.39037474 24.04691747 18 22 C18.50330762 19.58936558 18.50330762 19.58936558 18.51171875 16.89453125 C18.54716797 15.91162109 18.58261719 14.92871094 18.61914062 13.91601562 C18.64169922 12.89185547 18.66425781 11.86769531 18.6875 10.8125 C18.72166016 9.77673828 18.75582031 8.74097656 18.79101562 7.67382812 C18.87352642 5.1159934 18.94266572 2.55850277 19 0 C19.99 0 20.98 0 22 0 C22.08741124 3.56234428 22.14052896 7.12441108 22.1875 10.6875 C22.21263672 11.69490234 22.23777344 12.70230469 22.26367188 13.74023438 C22.35691643 23.1579348 22.35691643 23.1579348 19 27 C14.7741215 29.81725233 10.96375312 29.79958384 6 29 C3.17575712 26.80977082 1.58491397 25.16982793 0 22 C-0.08426094 20.3325394 -0.10725143 18.66174813 -0.09765625 16.9921875 C-0.09443359 16.00605469 -0.09121094 15.01992188 -0.08789062 14.00390625 C-0.07951172 12.97136719 -0.07113281 11.93882812 -0.0625 10.875 C-0.05798828 9.83472656 -0.05347656 8.79445313 -0.04882812 7.72265625 C-0.03701952 5.14838038 -0.02055075 2.57421854 0 0 Z " fill="#FFE065" transform="translate(315,360)"/>
<path d="M0 0 C3.0222815 0.31953637 3.88139217 0.85586897 5.8515625 3.25 C6.43679688 4.1575 7.02203125 5.065 7.625 6 C9.76464003 9.60311903 9.76464003 9.60311903 13 12 C13.3403125 10.9790625 13.3403125 10.9790625 13.6875 9.9375 C15.35572357 6.20385676 17.55729608 3.27836579 20 0 C21.32 0.33 22.64 0.66 24 1 C23.28972656 1.84820312 22.57945312 2.69640625 21.84765625 3.5703125 C15.08044761 12.06043831 12.42466683 17.86561093 13 29 C12.01 29 11.02 29 10 29 C10.03222656 28.05640625 10.06445312 27.1128125 10.09765625 26.140625 C10.01060849 16.50733958 8.24063356 11.58394613 1.93359375 4.29296875 C0 2 0 2 0 0 Z " fill="#FFE168" transform="translate(417,202)"/>
<path d="M0 0 C5.61 0 11.22 0 17 0 C17 0.99 17 1.98 17 3 C14.69 3 12.38 3 10 3 C10 11.58 10 20.16 10 29 C9.01 29 8.02 29 7 29 C7 20.42 7 11.84 7 3 C4.69 3 2.38 3 0 3 C0 2.01 0 1.02 0 0 Z " fill="#FFDF60" transform="translate(308,202)"/>
</svg>
